<?xml version="1.0" standalone="no"?>
<!DOCTYPE svg PUBLIC "-//W3C//DTD SVG 20010904//EN"
 "http://www.w3.org/TR/2001/REC-SVG-20010904/DTD/svg10.dtd">
<svg version="1.0" xmlns="http://www.w3.org/2000/svg"
 width="812.000000pt" height="266.000000pt" viewBox="0 0 812.000000 266.000000"
 preserveAspectRatio="xMidYMid meet">

<g transform="translate(0.000000,266.000000) scale(0.100000,-0.100000)"
fill="#000000" stroke="none">
<path d="M0 1330 l0 -1330 4060 0 4060 0 0 1330 0 1330 -4060 0 -4060 0 0
-1330z m7499 810 c35 -28 74 -53 87 -56 13 -3 59 2 104 12 90 19 115 12 89
-24 -95 -131 -101 -152 -74 -261 25 -105 13 -113 -68 -47 -29 24 -63 49 -75
55 -29 15 -79 14 -138 -4 -27 -8 -55 -15 -62 -15 -28 0 -21 31 23 96 25 38 48
79 51 90 3 12 -1 59 -10 104 -15 78 -14 100 2 100 4 0 36 -23 71 -50z m-5200
-136 c31 -26 54 -83 44 -112 -20 -66 -56 -92 -123 -92 -32 0 -42 -4 -50 -22
-5 -13 -35 -124 -65 -248 -95 -382 -135 -533 -141 -539 -3 -3 -215 -7 -470 -9
l-464 -3 0 -29 0 -30 456 0 c295 0 462 -4 475 -10 23 -13 25 -47 2 -72 -15
-17 -44 -18 -498 -18 -445 0 -484 1 -504 18 -18 14 -30 60 -70 267 -51 258
-88 457 -118 630 l-18 100 -96 5 c-60 3 -102 10 -113 19 -21 17 -21 59 1 83
14 16 33 18 148 18 153 0 152 0 178 -95 9 -34 21 -73 26 -88 l11 -27 556 0
556 0 34 36 c43 48 64 93 64 139 0 29 8 45 34 71 44 44 99 47 145 8z m906 -79
c82 -51 112 -142 81 -247 -28 -96 -103 -142 -231 -140 -33 1 -72 -1 -87 -4
l-28 -6 0 -113 0 -114 -33 -6 c-18 -4 -49 -5 -68 -3 l-34 3 -3 333 -2 334 178
-4 c178 -3 179 -3 227 -33z m683 6 c2 -13 1 -39 -3 -57 -6 -33 -7 -34 -53 -34
-86 0 -92 5 -92 67 l0 54 73 -3 c67 -3 72 -5 75 -27z m2102 -36 l0 -55 -65 0
-65 0 0 55 0 55 65 0 65 0 0 -55z m-694 -174 c35 -118 66 -216 69 -219 2 -3 6
1 9 9 2 8 18 64 36 126 18 62 47 154 65 205 l32 93 107 3 106 3 0 -326 0 -325
-67 0 -68 0 3 250 c2 167 -1 250 -8 250 -5 0 -10 -6 -10 -13 0 -8 -9 -40 -19
-73 -11 -32 -44 -139 -75 -236 l-57 -178 -57 0 -57 0 -33 103 c-17 56 -52 169
-78 252 -25 82 -47 152 -50 154 -2 2 -4 -111 -4 -252 l0 -257 -67 0 -68 0 -1
325 -1 326 115 -3 114 -3 64 -214z m1859 -43 c4 -145 5 -292 4 -327 -4 -73 -8
-76 -91 -65 -46 6 -48 7 -48 37 l0 31 -33 -32 c-52 -50 -154 -61 -224 -24 -31
17 -70 67 -83 108 -8 22 -11 72 -8 128 5 110 30 165 94 202 68 40 175 31 225
-18 l29 -30 0 126 0 126 64 0 64 0 7 -262z m-2891 92 c33 0 104 -50 120 -85
34 -75 34 -75 -37 -75 -58 0 -66 3 -81 25 -20 31 -82 35 -116 7 -51 -41 -44
-213 11 -242 36 -20 77 -12 101 20 20 27 27 30 80 30 52 0 58 -2 58 -20 0 -47
-59 -119 -113 -139 -47 -18 -153 -13 -195 8 -96 49 -143 175 -113 298 28 113
133 193 235 177 16 -2 38 -4 50 -4z m-754 -45 c5 -37 6 -39 18 -18 17 30 74
63 111 63 l31 0 0 -64 0 -63 -50 -5 c-92 -9 -110 -47 -110 -231 l0 -118 -67 3
-68 3 -3 232 -2 232 32 4 c18 2 49 4 68 3 33 -1 35 -3 40 -41z m370 33 c0 -5
0 -111 0 -238 l0 -230 -70 0 -70 0 0 234 c0 215 1 235 18 239 26 8 122 3 122
-5z m937 -22 c54 -36 86 -100 91 -182 l4 -61 -157 -6 c-87 -3 -159 -8 -162
-10 -2 -3 3 -21 11 -41 27 -64 118 -80 155 -26 11 17 24 20 83 20 78 0 79 -2
35 -67 -36 -54 -102 -83 -186 -83 -110 0 -171 33 -214 115 -29 55 -31 192 -3
248 46 93 107 127 221 124 69 -2 86 -6 122 -31z m1173 -211 l0 -235 -67 0 -68
0 2 213 c1 116 2 222 2 235 1 20 6 22 66 22 l65 0 0 -235z m260 200 c0 -39 9
-45 27 -17 31 50 170 71 226 33 59 -39 62 -49 65 -258 l4 -193 -66 0 -65 0 -3
166 c-3 160 -4 166 -27 185 -28 23 -88 25 -118 4 -33 -23 -43 -75 -43 -222 l0
-133 -65 0 -65 0 0 235 0 235 65 0 65 0 0 -35z m-1707 -870 c-4 -12 -24 -15
-84 -15 l-79 0 0 -55 0 -55 75 0 c60 0 75 -3 75 -15 0 -12 -15 -15 -75 -15
l-75 0 0 -60 0 -60 85 0 c47 0 85 -4 85 -9 0 -9 -159 -19 -192 -12 -16 3 -18
19 -18 157 l0 153 98 3 c110 3 113 3 105 -17z m-1713 -146 c0 -124 -3 -160
-12 -157 -10 4 -14 47 -16 161 -2 135 0 157 13 157 13 0 15 -23 15 -161z m264
21 c71 -181 72 -183 51 -178 -10 1 -25 23 -35 48 l-18 45 -70 3 -70 3 -17 -46
c-12 -30 -24 -45 -35 -45 -15 0 -8 24 44 155 50 126 64 155 79 153 13 -2 33
-40 71 -138z m399 32 c22 -20 40 -86 32 -122 -16 -71 -84 -107 -144 -77 l-31
15 0 -54 c0 -41 -4 -54 -15 -54 -13 0 -15 24 -15 155 0 131 2 155 15 155 8 0
15 -7 15 -17 0 -14 2 -15 18 -1 9 9 24 18 32 21 22 8 72 -3 93 -21z m208 18
c5 0 18 -9 29 -20 17 -17 20 -33 20 -110 0 -71 -3 -90 -14 -90 -8 0 -16 5 -18
12 -3 8 -11 7 -28 -5 -52 -36 -120 -10 -120 46 0 55 31 77 104 77 38 0 46 3
46 18 0 45 -50 61 -112 37 -13 -5 -18 -2 -18 9 0 9 12 18 28 22 15 3 32 7 37
9 6 2 16 2 23 -1 8 -2 18 -4 23 -4z m239 -10 c0 -14 -7 -20 -24 -20 -38 0 -51
-26 -56 -114 -4 -63 -8 -81 -20 -81 -12 0 -16 20 -18 113 -3 107 -2 112 18
112 12 0 20 -7 20 -17 0 -15 2 -15 18 -1 9 9 26 18 37 21 11 2 21 5 23 6 1 0
2 -8 2 -19z m193 -12 c23 -27 26 -198 3 -198 -8 0 -16 5 -18 12 -3 8 -11 7
-28 -5 -52 -36 -120 -10 -120 46 0 18 4 37 8 44 11 18 58 33 103 33 45 0 51
18 18 51 -20 20 -31 21 -91 3 -12 -4 -18 0 -18 10 0 19 55 36 95 29 17 -2 38
-14 48 -25z m805 16 c6 -2 12 -11 12 -20 0 -12 -5 -14 -17 -9 -71 31 -123 -2
-123 -76 0 -72 60 -111 121 -79 15 9 19 7 19 -5 0 -21 -48 -38 -89 -31 -50 8
-73 35 -79 95 -7 78 14 114 78 134 14 5 47 1 78 -9z m198 6 c25 0 62 -49 69
-89 19 -114 -109 -186 -186 -105 -32 34 -35 130 -5 163 21 23 72 42 94 35 8
-2 20 -4 28 -4z m293 -15 c13 -13 17 -13 30 -1 16 15 47 20 88 18 38 -3 54
-51 51 -145 -2 -65 -6 -82 -18 -82 -12 0 -16 18 -18 92 -2 81 -5 94 -23 103
-22 13 -52 6 -74 -16 -11 -11 -15 -37 -15 -95 0 -72 -2 -79 -20 -79 -19 0 -20
7 -20 90 0 80 -2 90 -21 100 -27 15 -76 -4 -85 -34 -4 -11 -7 -49 -5 -84 2
-70 -3 -84 -24 -75 -12 4 -15 28 -15 114 0 102 1 109 20 109 11 0 20 -4 20 -9
0 -6 12 -3 28 5 31 17 79 11 101 -11z m404 -3 c15 -14 19 -13 36 2 30 27 89
25 112 -3 16 -19 19 -40 19 -118 0 -71 -3 -94 -12 -91 -9 3 -15 36 -18 97 -5
95 -13 111 -53 111 -10 0 -29 -11 -42 -25 -22 -21 -25 -33 -25 -100 0 -60 -3
-75 -15 -75 -12 0 -15 15 -15 78 0 114 -33 149 -94 101 -24 -19 -26 -26 -26
-99 0 -60 -3 -79 -15 -84 -13 -5 -15 11 -15 109 0 96 3 115 15 115 8 0 15 -7
15 -17 0 -15 2 -15 18 -1 32 29 81 29 115 0z m390 -2 c19 -17 39 -84 29 -94
-3 -4 -41 -6 -84 -6 -88 0 -98 -11 -53 -55 26 -27 72 -33 106 -15 15 9 19 7
19 -5 0 -21 -48 -38 -90 -31 -83 13 -121 127 -65 195 37 43 99 49 138 11z
m390 16 c16 -4 27 -12 24 -19 -2 -7 -11 -10 -18 -9 -61 16 -78 14 -103 -11
-72 -72 8 -193 96 -146 17 9 19 8 16 -8 -5 -26 -67 -40 -108 -23 -39 16 -60
56 -60 114 0 68 52 120 110 110 8 -1 28 -5 43 -8z m235 -23 c14 -15 22 -37 22
-59 l0 -34 -81 0 -81 0 7 -27 c3 -15 14 -33 23 -40 17 -14 72 -13 106 2 14 6
17 4 14 -11 -5 -27 -59 -40 -108 -25 -47 14 -70 50 -70 110 0 57 17 88 59 105
45 18 79 12 109 -21z m-502 12 c-3 -8 -2 -15 3 -15 5 0 14 7 21 15 17 20 71
21 64 1 -3 -8 -18 -16 -32 -18 -38 -4 -62 -56 -62 -136 0 -47 -3 -63 -12 -60
-9 3 -14 38 -16 116 -3 109 -2 112 19 112 15 0 19 -5 15 -15z m-5106 -24 c34
-24 53 -82 39 -118 -16 -41 -38 -62 -79 -73 -71 -19 -140 32 -140 102 1 97
102 147 180 89z m616 14 c65 -27 81 -126 29 -175 -32 -30 -85 -40 -122 -25
-86 37 -98 148 -21 195 39 24 67 25 114 5z m2872 -72 c3 -10 -14 -13 -62 -13
-62 0 -88 13 -48 23 32 9 105 2 110 -10z"/>
<path d="M954 1617 c-2 -7 17 -125 44 -262 l48 -250 400 0 399 0 17 55 c33
111 110 449 103 459 -10 17 -1004 15 -1011 -2z m508 -54 c2 -9 20 -21 43 -27
33 -9 41 -17 43 -39 3 -25 1 -27 -32 -27 -19 0 -38 5 -41 10 -10 17 -25 1 -25
-26 0 -18 9 -30 32 -42 18 -9 45 -30 61 -45 25 -24 29 -33 24 -64 -8 -46 -31
-71 -73 -79 -29 -5 -34 -10 -34 -35 0 -21 -4 -27 -14 -23 -8 3 -16 15 -18 27
-2 15 -14 23 -48 31 -41 10 -45 14 -48 44 -3 27 0 32 18 32 11 0 34 -7 49 -15
32 -16 41 -12 42 19 1 19 1 19 7 -2 4 -13 10 -23 15 -23 4 1 12 1 17 1 18 0
11 50 -7 57 -43 14 -108 48 -125 65 -43 43 -4 138 57 138 18 0 29 6 32 20 6
24 20 26 25 3z"/>
<path d="M1414 1475 c-8 -19 2 -45 16 -45 5 0 10 14 10 30 0 31 -16 41 -26 15z"/>
<path d="M2942 1748 l3 -93 79 1 c73 0 80 2 102 28 26 29 31 74 13 108 -16 29
-70 48 -139 48 l-61 0 3 -92z"/>
<path d="M6863 1646 c-37 -17 -51 -40 -59 -98 -14 -98 33 -168 110 -168 73 1
106 45 106 142 0 60 -3 71 -27 98 -33 37 -84 47 -130 26z"/>
<path d="M4633 1655 c-22 -15 -46 -69 -36 -79 4 -3 44 -6 90 -6 l83 0 0 28 c0
59 -84 94 -137 57z"/>
<path d="M3000 775 c-11 -26 -23 -58 -26 -71 -6 -23 -4 -24 50 -24 l56 0 -25
67 c-14 37 -28 69 -30 71 -2 3 -14 -16 -25 -43z"/>
<path d="M3375 735 c-34 -33 -35 -102 -2 -133 23 -22 62 -28 83 -14 38 25 45
105 13 146 -26 33 -62 34 -94 1z"/>
<path d="M3630 657 c-45 -23 -34 -77 17 -77 39 0 73 28 73 61 0 26 -3 29 -32
29 -18 0 -44 -6 -58 -13z"/>
<path d="M4046 661 c-60 -13 -60 -73 0 -79 36 -4 76 31 72 61 -3 24 -24 29
-72 18z"/>
<path d="M5053 745 c-30 -21 -39 -84 -19 -124 27 -52 107 -55 126 -5 36 93
-35 179 -107 129z"/>
<path d="M6115 735 c-38 -37 -32 -45 40 -45 58 0 65 2 65 19 0 22 -35 51 -63
51 -10 0 -29 -11 -42 -25z"/>
<path d="M6735 735 c-38 -37 -32 -45 40 -45 36 0 65 3 65 6 0 11 -23 49 -34
56 -21 14 -47 8 -71 -17z"/>
</g>
</svg>
