<?xml version="1.0" standalone="no"?>
<!DOCTYPE svg PUBLIC "-//W3C//DTD SVG 20010904//EN"
 "http://www.w3.org/TR/2001/REC-SVG-20010904/DTD/svg10.dtd">
<svg version="1.0" xmlns="http://www.w3.org/2000/svg"
 width="209.000000pt" height="207.000000pt" viewBox="0 0 209.000000 207.000000"
 preserveAspectRatio="xMidYMid meet">

<g transform="translate(0.000000,207.000000) scale(0.100000,-0.100000)"
fill="#000000" stroke="none">
<path d="M0 1035 l0 -1035 1045 0 1045 0 0 1035 0 1035 -1045 0 -1045 0 0
-1035z m1878 595 c39 -24 55 -62 49 -114 -8 -56 -36 -80 -104 -86 l-57 -5 -18
-70 c-10 -38 -55 -216 -101 -395 l-82 -325 -452 -3 c-249 -1 -453 -6 -453 -10
0 -4 3 -17 6 -30 l6 -22 438 0 c424 0 437 -1 455 -20 15 -17 16 -24 7 -45 -11
-25 -14 -25 -134 -26 -403 -5 -834 3 -844 14 -11 11 -90 401 -163 801 -17 96
-34 162 -42 167 -8 5 -51 9 -96 9 -61 0 -86 4 -97 16 -20 19 -20 54 -2 80 13
17 29 19 133 22 157 3 160 2 193 -113 l25 -90 539 -3 c410 -2 542 1 553 10 26
21 73 112 73 141 0 42 25 82 62 100 44 22 66 21 106 -3z m-1017 -1220 c25 -14
49 -62 49 -101 0 -43 -56 -99 -100 -99 -66 0 -109 43 -110 108 0 60 41 102
100 102 23 0 50 -5 61 -10z m620 -19 c23 -23 29 -38 29 -71 0 -52 -13 -76 -50
-95 -100 -51 -197 45 -145 145 20 38 41 49 93 50 35 0 49 -6 73 -29z"/>
<path d="M594 1246 c-3 -8 16 -124 43 -258 l48 -243 380 4 c209 2 382 5 384 7
9 8 121 480 117 491 -8 20 -964 19 -972 -1z m532 -77 c37 -10 45 -15 42 -33
-2 -16 -10 -21 -33 -20 -16 0 -37 2 -45 5 -11 3 -16 -5 -18 -29 -3 -30 0 -34
40 -51 56 -24 73 -45 73 -93 0 -31 -7 -45 -28 -64 -16 -13 -39 -24 -53 -24
-19 0 -24 -5 -24 -25 0 -31 -17 -33 -22 -3 -2 16 -15 24 -50 35 -54 15 -59 21
-51 52 5 18 11 22 32 18 14 -2 34 -8 43 -12 13 -5 20 -1 27 16 10 24 10 24 10
2 1 -26 12 -35 30 -24 27 17 5 45 -64 80 -53 27 -71 43 -78 65 -13 40 12 89
55 106 18 8 37 20 42 28 7 13 10 13 18 -2 5 -9 29 -21 54 -27z"/>
<path d="M1040 1115 c-13 -16 -7 -45 10 -45 5 0 10 14 10 30 0 34 -3 36 -20
15z"/>
</g>
</svg>
